<?xml version="1.0" standalone="no"?>
<!DOCTYPE svg PUBLIC "-//W3C//DTD SVG 20010904//EN"
 "http://www.w3.org/TR/2001/REC-SVG-20010904/DTD/svg10.dtd">
<svg version="1.0" xmlns="http://www.w3.org/2000/svg"
 width="512.000000pt" height="512.000000pt" viewBox="0 0 512.000000 512.000000"
 preserveAspectRatio="xMidYMid meet">
<metadata>
Created by potrace 1.16, written by Peter Selinger 2001-2019
</metadata>
<g transform="translate(0.000000,512.000000) scale(0.100000,-0.100000)"
fill="#000000" stroke="none">
<path d="M900 3625 c0 -20 -5 -25 -24 -25 -24 0 -24 0 -30 -142 -8 -185 -26
-1263 -26 -1524 l0 -201 78 -7 c147 -11 1013 -46 1021 -40 1 1 7 130 12 286
14 440 48 1248 59 1398 12 170 12 200 0 200 -6 0 -10 -30 -10 -71 0 -39 -4
-146 -10 -238 -15 -247 -39 -810 -51 -1206 -6 -192 -12 -351 -13 -352 -10 -11
-1057 35 -1069 47 -7 6 3 835 19 1537 l7 292 26 3 c21 2 27 9 29 36 2 18 -1
32 -7 32 -6 0 -11 -11 -11 -25z"/>
<path d="M2126 3414 c-3 -76 -10 -305 -16 -509 -21 -802 -32 -1154 -39 -1239
l-6 -90 -65 2 c-36 1 -272 6 -525 12 -253 5 -513 12 -577 14 -65 3 -118 3
-118 1 0 -2 36 -16 81 -30 124 -39 261 -57 614 -81 50 -3 143 -12 208 -18 67
-7 121 -8 124 -3 3 4 21 6 42 3 159 -24 234 -15 313 39 l51 36 141 -5 c122 -4
237 -14 644 -52 46 -4 72 -3 72 3 0 6 -33 13 -72 16 -221 18 -770 79 -840 93
l-28 6 6 71 c10 131 -1 120 122 114 l107 -6 -109 14 c-59 8 -109 15 -110 17
-1 2 0 45 2 96 5 106 -1 101 117 82 140 -22 679 -90 683 -85 3 3 3 5 1 5 -6 0
-640 87 -737 101 -46 7 -79 15 -75 18 5 3 9 23 8 44 l0 38 38 -6 c24 -5 37 -3
37 4 0 6 -15 11 -34 11 -22 0 -36 6 -40 16 -3 9 -6 67 -6 130 l0 114 38 1 c24
1 29 3 14 6 -25 5 -27 9 -36 61 -5 31 -5 32 32 33 36 1 36 2 7 8 -26 5 -30 11
-33 44 -3 36 -2 37 30 38 l33 1 -31 9 c-29 8 -32 13 -32 50 l-1 41 40 -5 c51
-7 51 9 0 17 l-39 6 -4 71 -3 71 43 -7 c27 -4 42 -2 42 4 0 6 -16 11 -35 11
-30 0 -35 4 -43 33 l-8 32 50 5 51 6 -37 8 c-30 6 -37 13 -40 37 -4 28 -3 29
41 30 l46 1 -42 10 c-32 8 -42 16 -46 35 -4 23 -3 24 42 18 34 -5 42 -4 31 4
-8 6 -25 11 -37 11 -26 0 -37 15 -39 54 l-1 29 58 -6 c75 -7 67 10 -9 19 l-57
6 -2 80 -2 80 42 -6 c23 -3 70 -8 103 -12 l62 -6 5 28 c3 16 9 48 12 70 l6 42
-63 10 c-35 6 -87 14 -117 18 -47 6 -55 10 -66 37 -11 27 -13 16 -19 -109z
m212 40 l39 -6 -9 -56 c-5 -31 -10 -57 -11 -59 -2 -1 -43 3 -91 10 -92 14
-106 23 -106 69 0 14 -3 34 -7 44 -6 16 0 17 70 11 42 -4 94 -9 115 -13z"/>
<path d="M962 3505 c-28 -35 -28 -50 1 -79 22 -22 30 -23 272 -29 421 -12 489
-10 508 11 10 10 17 30 17 45 0 48 -25 54 -260 61 -118 3 -283 9 -366 12
l-151 7 -21 -28z m512 -4 c219 -6 250 -9 261 -25 17 -23 7 -56 -19 -65 -35
-13 -724 5 -741 19 -18 15 -20 51 -3 68 14 14 123 14 502 3z"/>
<path d="M2615 3430 c17 -4 144 -23 282 -41 139 -18 258 -36 264 -39 7 -5 8
-24 4 -54 -6 -38 -11 -46 -29 -46 -11 0 -154 18 -316 40 -265 36 -364 46 -335
34 15 -6 678 -94 682 -91 2 2 4 32 5 67 l3 64 -50 8 c-27 4 -150 21 -273 38
-224 30 -297 36 -237 20z"/>
<path d="M3366 3377 c-3 -34 -11 -237 -16 -452 -6 -214 -15 -460 -21 -545 -19
-305 -115 -1129 -133 -1147 -4 -4 -455 52 -1025 127 -166 22 -315 40 -329 40
-25 0 -25 -1 -6 -15 44 -33 194 -62 489 -95 129 -14 132 -14 320 -44 88 -13
189 -28 225 -31 36 -4 79 -8 95 -10 267 -36 291 -32 372 52 29 30 53 58 53 62
0 16 88 45 145 49 35 2 132 -8 230 -23 94 -15 226 -36 295 -46 303 -48 302
-48 339 -36 33 11 37 17 53 76 16 60 24 143 33 360 4 87 7 142 20 301 3 36 8
103 10 150 3 47 8 105 11 130 3 25 7 56 8 70 2 14 6 54 9 90 4 36 10 144 13
240 3 96 8 198 11 225 3 28 7 115 10 195 l5 145 -30 28 -30 29 -6 -39 c-22
-140 -52 -440 -66 -668 -6 -93 -17 -249 -25 -345 -8 -96 -26 -337 -40 -535
-14 -198 -27 -369 -30 -381 -5 -24 26 -26 -370 27 -203 27 -541 79 -617 95
-25 5 -27 8 -17 26 6 12 11 38 11 59 -1 36 1 38 26 34 101 -18 315 -46 318
-42 3 2 -74 17 -170 32 -107 18 -173 33 -170 39 2 6 6 24 8 40 3 16 7 30 9 33
3 2 88 -7 189 -21 191 -27 215 -29 206 -21 -2 3 -85 16 -184 30 -246 35 -222
25 -217 87 2 29 9 86 15 127 l11 73 51 -6 c28 -4 157 -22 286 -41 129 -19 250
-37 269 -39 19 -3 30 -1 25 3 -5 5 -79 18 -164 30 -85 12 -220 32 -299 45
-141 22 -145 23 -152 49 -4 15 -3 29 1 32 5 3 149 -15 320 -40 172 -25 322
-44 334 -44 24 1 -107 23 -414 69 -118 18 -219 37 -225 42 -5 5 -10 22 -11 39
-2 28 0 29 30 24 115 -20 641 -93 644 -90 7 7 -102 25 -566 92 l-112 16 6 66
c4 36 8 68 10 70 2 2 70 -6 151 -18 81 -12 236 -35 343 -50 107 -16 197 -27
199 -25 7 7 -25 12 -344 59 -176 26 -326 49 -332 51 -7 2 -13 14 -13 28 0 13
-6 27 -12 30 -7 3 -4 4 7 2 11 -3 56 -7 100 -11 44 -4 197 -22 339 -41 142
-19 261 -33 263 -30 2 2 -25 9 -61 15 -72 13 -606 81 -634 81 -10 0 -13 3 -6
8 14 9 14 43 1 60 -9 11 -4 13 24 8 19 -3 93 -13 164 -22 183 -22 466 -62 501
-70 21 -5 26 -3 19 4 -9 9 -196 38 -610 92 l-91 12 4 35 c4 35 5 35 46 29 22
-3 180 -26 350 -51 170 -25 311 -43 313 -41 6 6 -35 14 -227 41 -372 53 -500
77 -486 91 9 8 13 37 12 83 0 39 0 71 1 71 11 0 562 -82 602 -90 29 -5 61 -10
70 -9 49 2 -56 21 -344 64 -176 27 -322 49 -323 51 -2 1 -5 18 -6 36 l-1 34
75 -12 c87 -15 536 -83 595 -91 22 -3 38 -3 35 0 -4 4 -148 29 -320 56 -301
48 -410 68 -382 70 10 1 11 50 7 236 l-5 235 35 0 c34 0 35 2 35 36 0 35 1 36
33 30 17 -3 57 -8 87 -10 52 -5 52 -5 -15 9 -111 22 -115 21 -115 -21 0 -29
-3 -35 -16 -30 -9 3 -22 6 -30 6 -9 0 -14 12 -14 36 0 19 4 33 9 29 5 -3 12
-1 16 5 3 5 -3 10 -14 10 -14 0 -21 -8 -24 -27 l-4 -28 -2 26 c0 17 -13 36
-35 53 l-34 26 -6 -63z"/>
<path d="M955 3250 c4 -6 66 -9 158 -8 130 1 141 2 77 8 -119 12 -242 11 -235
0z"/>
<path d="M4138 3233 c7 -3 16 -2 19 1 4 3 -2 6 -13 5 -11 0 -14 -3 -6 -6z"/>
<path d="M4188 3223 c6 -2 18 -2 25 0 6 3 1 5 -13 5 -14 0 -19 -2 -12 -5z"/>
<path d="M4248 3213 c6 -2 18 -2 25 0 6 3 1 5 -13 5 -14 0 -19 -2 -12 -5z"/>
<path d="M4308 3203 c6 -2 18 -2 25 0 6 3 1 5 -13 5 -14 0 -19 -2 -12 -5z"/>
<path d="M1020 3131 c33 -10 801 -22 775 -12 -11 5 -195 11 -410 14 -214 3
-379 2 -365 -2z"/>
<path d="M4372 3120 c0 -14 2 -19 5 -12 2 6 2 18 0 25 -3 6 -5 1 -5 -13z"/>
<path d="M2475 3110 c25 -11 522 -73 538 -67 17 6 -27 13 -295 47 -251 32
-275 34 -243 20z"/>
<path d="M3512 3084 c9 -8 597 -94 638 -93 41 2 30 4 -349 60 -269 40 -299 43
-289 33z"/>
<path d="M950 3040 c0 -8 657 -24 785 -18 44 2 -64 6 -240 11 -176 4 -371 9
-432 11 -62 2 -113 0 -113 -4z"/>
<path d="M4362 3010 c0 -14 2 -19 5 -12 2 6 2 18 0 25 -3 6 -5 1 -5 -13z"/>
<path d="M2450 2950 c0 -5 6 -10 13 -10 7 0 120 -13 252 -30 238 -30 293 -35
283 -25 -2 3 -112 18 -244 35 -131 16 -254 32 -271 35 -20 4 -33 2 -33 -5z"/>
<path d="M1010 2941 c0 -11 324 -21 585 -19 l210 1 -265 8 c-146 4 -325 10
-397 13 -73 3 -133 2 -133 -3z"/>
<path d="M4352 2900 c0 -14 2 -19 5 -12 2 6 2 18 0 25 -3 6 -5 1 -5 -13z"/>
<path d="M3621 2906 c2 -2 117 -20 254 -41 138 -20 261 -38 275 -41 18 -4 21
-3 10 4 -8 5 -64 17 -125 26 -60 9 -167 25 -237 36 -121 19 -186 25 -177 16z"/>
<path d="M3595 2843 c398 -64 565 -88 565 -81 0 4 -4 8 -9 8 -5 0 -138 20
-297 45 -158 25 -301 44 -318 44 -17 -1 10 -8 59 -16z"/>
<path d="M995 2840 c48 -8 813 -14 804 -6 -2 2 -195 6 -429 9 -236 3 -403 2
-375 -3z"/>
<path d="M2430 2820 c0 -5 3 -10 8 -10 4 0 128 -16 276 -35 148 -19 272 -33
274 -30 9 9 -22 14 -268 45 -135 17 -255 33 -267 35 -13 3 -23 1 -23 -5z"/>
<path d="M4342 2790 c0 -19 2 -27 5 -17 2 9 2 25 0 35 -3 9 -5 1 -5 -18z"/>
<path d="M1145 2760 c83 -4 267 -7 410 -7 242 1 249 1 105 7 -85 4 -270 7
-410 7 -236 -1 -244 -1 -105 -7z"/>
<path d="M1120 2669 c96 -3 290 -6 430 -6 245 1 249 1 95 7 -88 4 -281 7 -430
7 -266 -1 -268 -1 -95 -8z"/>
<path d="M2415 2632 c6 -6 105 -22 220 -36 289 -36 314 -38 290 -26 -11 5
-119 21 -240 35 -121 14 -233 28 -250 31 -20 4 -27 3 -20 -4z"/>
<path d="M968 2583 c12 -2 32 -2 45 0 12 2 2 4 -23 4 -25 0 -35 -2 -22 -4z"/>
<path d="M2405 2490 c11 -5 115 -20 230 -35 287 -36 304 -37 280 -26 -18 9
-481 72 -515 70 -10 0 -8 -3 5 -9z"/>
<path d="M4322 2450 c0 -19 2 -27 5 -17 2 9 2 25 0 35 -3 9 -5 1 -5 -18z"/>
<path d="M1065 2460 c39 -4 221 -10 405 -13 192 -3 303 -2 260 3 -41 4 -223
10 -405 13 -181 3 -298 1 -260 -3z"/>
<path d="M2390 2363 c0 -9 530 -77 537 -69 8 8 -26 14 -285 46 -278 34 -252
32 -252 23z"/>
<path d="M1033 2293 c48 -2 125 -2 170 0 45 1 6 3 -88 3 -93 0 -130 -2 -82 -3z"/>
<path d="M4312 2250 c0 -14 2 -19 5 -12 2 6 2 18 0 25 -3 6 -5 1 -5 -13z"/>
<path d="M1060 2190 c168 -11 749 -10 725 0 -11 5 -204 8 -430 8 -268 -1 -370
-4 -295 -8z"/>
<path d="M2381 2130 c14 -4 111 -18 215 -30 138 -17 192 -27 202 -38 10 -14
12 -13 12 6 0 12 -6 22 -12 22 -7 0 -101 11 -208 25 -202 26 -257 30 -209 15z"/>
<path d="M3141 1934 c0 -11 3 -14 6 -6 3 7 2 16 -1 19 -3 4 -6 -2 -5 -13z"/>
<path d="M961 1926 c2 -2 166 -5 364 -8 198 -3 322 -2 275 3 -85 7 -647 12
-639 5z"/>
<path d="M3132 1840 c0 -14 2 -19 5 -12 2 6 2 18 0 25 -3 6 -5 1 -5 -13z"/>
<path d="M2533 1793 c9 -2 25 -2 35 0 9 3 1 5 -18 5 -19 0 -27 -2 -17 -5z"/>
<path d="M2613 1783 c9 -2 25 -2 35 0 9 3 1 5 -18 5 -19 0 -27 -2 -17 -5z"/>
<path d="M2693 1773 c9 -2 25 -2 35 0 9 3 1 5 -18 5 -19 0 -27 -2 -17 -5z"/>
<path d="M2773 1763 c9 -2 25 -2 35 0 9 3 1 5 -18 5 -19 0 -27 -2 -17 -5z"/>
<path d="M2853 1753 c9 -2 23 -2 30 0 6 3 -1 5 -18 5 -16 0 -22 -2 -12 -5z"/>
<path d="M2933 1743 c9 -2 23 -2 30 0 6 3 -1 5 -18 5 -16 0 -22 -2 -12 -5z"/>
<path d="M3008 1733 c7 -3 16 -2 19 1 4 3 -2 6 -13 5 -11 0 -14 -3 -6 -6z"/>
<path d="M4272 1670 c0 -14 2 -19 5 -12 2 6 2 18 0 25 -3 6 -5 1 -5 -13z"/>
<path d="M3111 1664 c0 -11 3 -14 6 -6 3 7 2 16 -1 19 -3 4 -6 -2 -5 -13z"/>
<path d="M3101 1584 c0 -11 3 -14 6 -6 3 7 2 16 -1 19 -3 4 -6 -2 -5 -13z"/>
<path d="M4262 1565 c0 -16 2 -22 5 -12 2 9 2 23 0 30 -3 6 -5 -1 -5 -18z"/>
<path d="M3738 1523 c6 -2 18 -2 25 0 6 3 1 5 -13 5 -14 0 -19 -2 -12 -5z"/>
<path d="M3086 1503 c-6 -14 -5 -15 5 -6 7 7 10 15 7 18 -3 3 -9 -2 -12 -12z"/>
<path d="M3798 1513 c6 -2 18 -2 25 0 6 3 1 5 -13 5 -14 0 -19 -2 -12 -5z"/>
<path d="M3858 1503 c6 -2 18 -2 25 0 6 3 1 5 -13 5 -14 0 -19 -2 -12 -5z"/>
<path d="M3918 1493 c6 -2 18 -2 25 0 6 3 1 5 -13 5 -14 0 -19 -2 -12 -5z"/>
<path d="M3978 1483 c6 -2 18 -2 25 0 6 3 1 5 -13 5 -14 0 -19 -2 -12 -5z"/>
<path d="M4048 1473 c6 -2 18 -2 25 0 6 3 1 5 -13 5 -14 0 -19 -2 -12 -5z"/>
<path d="M4250 1468 c0 -9 -6 -19 -12 -21 -10 -4 -10 -6 0 -6 14 -1 28 26 18
36 -3 4 -6 -1 -6 -9z"/>
<path d="M4118 1463 c6 -2 18 -2 25 0 6 3 1 5 -13 5 -14 0 -19 -2 -12 -5z"/>
<path d="M4188 1453 c7 -3 16 -2 19 1 4 3 -2 6 -13 5 -11 0 -14 -3 -6 -6z"/>
</g>
</svg>