<?xml version="1.0" standalone="no"?>
<!DOCTYPE svg PUBLIC "-//W3C//DTD SVG 20010904//EN"
 "http://www.w3.org/TR/2001/REC-SVG-20010904/DTD/svg10.dtd">
<svg version="1.0" xmlns="http://www.w3.org/2000/svg"
 width="512.000000pt" height="512.000000pt" viewBox="0 0 512.000000 512.000000"
 preserveAspectRatio="xMidYMid meet">
<metadata>
Created by potrace 1.16, written by Peter Selinger 2001-2019
</metadata>
<g transform="translate(0.000000,512.000000) scale(0.100000,-0.100000)"
fill="#000000" stroke="none">
<path d="M2470 4215 c0 -84 17 -84 22 0 2 47 0 65 -9 65 -9 0 -13 -20 -13 -65z"/>
<path d="M2530 4270 c0 -5 4 -10 9 -10 5 0 10 -60 10 -134 l2 -135 -28 -4 -28
-4 28 -2 27 -1 0 -85 0 -85 -62 0 c-87 0 -179 -16 -271 -46 -102 -34 -94 -41
10 -10 77 23 221 46 291 46 l32 0 0 -384 c0 -298 -3 -385 -12 -389 -10 -4 -10
-6 0 -6 9 -1 12 -48 12 -198 l0 -198 -58 90 c-104 161 -143 232 -136 248 7 20
-31 58 -50 51 -25 -9 -30 -43 -10 -65 9 -10 22 -19 28 -19 10 0 206 -300 206
-315 0 -3 -85 -5 -190 -5 -120 0 -190 -4 -190 -10 0 -6 70 -10 190 -10 181 0
190 -1 190 -19 0 -11 5 -23 10 -26 6 -3 10 -17 10 -31 0 -23 -3 -24 -62 -24
-35 0 -120 -3 -189 -7 -119 -6 -127 -5 -132 13 -4 18 -5 18 -6 -1 -1 -16 -8
-20 -33 -20 -26 0 -34 -5 -36 -21 -3 -23 18 -37 43 -28 8 4 15 12 15 19 0 10
37 14 148 19 81 4 171 8 200 9 l52 4 0 -173 c0 -171 0 -173 -22 -177 l-23 -4
23 -2 22 -1 0 -461 c0 -304 3 -458 10 -454 6 4 10 168 10 460 l0 454 33 4 32
4 -32 1 -33 2 0 176 0 175 32 -3 c26 -2 51 -24 142 -124 100 -110 134 -141
124 -115 -1 5 -48 58 -103 118 l-99 108 45 3 c25 2 104 -1 175 -7 122 -9 144
-8 132 4 -3 3 -90 10 -194 16 -177 11 -190 13 -210 34 -15 16 -20 32 -17 49
l5 26 194 0 c123 0 194 4 194 10 0 6 -73 10 -200 10 l-199 0 52 88 c29 48 75
124 102 170 34 55 55 80 64 77 11 -4 11 -2 2 9 -14 17 2 31 22 20 9 -6 9 -5 0
7 -10 12 7 46 93 183 95 152 124 207 82 159 -15 -18 -265 -424 -372 -605 -32
-54 -60 -98 -62 -98 -2 0 -4 266 -4 590 l0 590 46 0 c26 0 94 -7 151 -16 58
-8 107 -13 110 -11 7 7 -92 27 -162 33 -33 3 -79 7 -102 10 l-43 5 0 79 c0 53
4 80 13 83 9 4 9 6 -1 6 -19 1 -16 271 4 271 8 0 14 -5 14 -12 0 -9 3 -9 11
-1 6 6 8 16 5 22 -9 14 -86 15 -86 1z m50 -1701 c0 -10 -6 -19 -14 -19 -19 0
-30 31 -14 41 17 10 28 2 28 -22z m20 -64 c10 -13 9 -15 -9 -15 -12 0 -21 6
-21 15 0 8 4 15 9 15 5 0 14 -7 21 -15z"/>
<path d="M2640 4210 c0 -40 4 -70 10 -70 6 0 10 30 10 70 0 40 -4 70 -10 70
-6 0 -10 -30 -10 -70z"/>
<path d="M1612 4003 c-16 -30 -24 -83 -14 -83 6 0 13 13 17 30 l7 30 26 -31
c24 -30 25 -32 8 -45 -18 -12 -18 -14 0 -53 11 -22 24 -41 29 -41 9 0 41 19
64 36 2 2 -8 19 -23 38 -22 29 -24 39 -16 61 5 14 10 33 10 41 0 19 -29 18
-51 -2 -17 -16 -19 -15 -28 10 -12 31 -17 32 -29 9z m83 -50 c-7 -17 -8 -17
-15 2 -9 24 -2 41 12 27 6 -6 7 -19 3 -29z m18 -95 c-6 -11 -31 -10 -38 2 -3
6 -3 19 0 30 6 20 7 20 25 -2 10 -13 16 -26 13 -30z"/>
<path d="M2373 3973 c9 -2 23 -2 30 0 6 3 -1 5 -18 5 -16 0 -22 -2 -12 -5z"/>
<path d="M2678 3973 c12 -2 30 -2 40 0 9 3 -1 5 -23 4 -22 0 -30 -2 -17 -4z"/>
<path d="M2308 3963 c7 -3 16 -2 19 1 4 3 -2 6 -13 5 -11 0 -14 -3 -6 -6z"/>
<path d="M2258 3953 c7 -3 16 -2 19 1 4 3 -2 6 -13 5 -11 0 -14 -3 -6 -6z"/>
<path d="M2178 3933 c7 -3 16 -2 19 1 4 3 -2 6 -13 5 -11 0 -14 -3 -6 -6z"/>
<path d="M1689 3773 c-13 -16 -12 -17 4 -4 9 7 17 15 17 17 0 8 -8 3 -21 -13z"/>
<path d="M1614 3718 l-19 -23 23 19 c21 18 27 26 19 26 -2 0 -12 -10 -23 -22z"/>
<path d="M3440 3726 c0 -2 8 -10 18 -17 15 -13 16 -12 3 4 -13 16 -21 21 -21
13z"/>
<path d="M3605 3700 c10 -11 20 -20 23 -20 3 0 -3 9 -13 20 -10 11 -20 20 -23
20 -3 0 3 -9 13 -20z"/>
<path d="M1564 3678 l-19 -23 23 19 c21 18 27 26 19 26 -2 0 -12 -10 -23 -22z"/>
<path d="M3490 3686 c0 -2 8 -10 18 -17 15 -13 16 -12 3 4 -13 16 -21 21 -21
13z"/>
<path d="M3150 3676 c0 -3 9 -10 20 -16 11 -6 20 -8 20 -6 0 3 -9 10 -20 16
-11 6 -20 8 -20 6z"/>
<path d="M1435 3558 l-100 -103 103 100 c56 55 102 101 102 102 0 8 -12 -4
-105 -99z"/>
<path d="M1859 3633 c-13 -16 -12 -17 4 -4 16 13 21 21 13 21 -2 0 -10 -8 -17
-17z"/>
<path d="M3585 3600 c21 -22 41 -40 44 -40 3 0 -13 18 -34 40 -21 22 -41 40
-44 40 -3 0 13 -18 34 -40z"/>
<path d="M1819 3603 c-13 -16 -12 -17 4 -4 16 13 21 21 13 21 -2 0 -10 -8 -17
-17z"/>
<path d="M1774 3568 l-19 -23 23 19 c21 18 27 26 19 26 -2 0 -12 -10 -23 -22z"/>
<path d="M1655 3458 c-79 -82 -167 -180 -114 -128 61 61 202 210 198 210 -2 0
-40 -37 -84 -82z"/>
<path d="M2080 3470 c-39 -39 -20 -120 28 -120 39 0 52 17 52 66 0 33 -5 47
-22 58 -29 20 -34 20 -58 -4z m48 -12 c28 -28 5 -109 -25 -90 -18 11 -26 58
-13 81 12 24 21 26 38 9z"/>
<path d="M3058 3469 c-19 -11 -25 -39 -8 -39 6 0 1 -9 -11 -21 -30 -30 -19
-44 36 -44 35 0 51 5 59 18 9 14 7 21 -6 31 -11 8 -13 17 -7 28 7 13 4 20 -10
28 -24 12 -31 12 -53 -1z m42 -18 c0 -15 -16 -22 -35 -15 -13 5 -14 8 -3 15
18 12 38 11 38 0z m13 -56 c1 -5 -13 -11 -30 -13 -31 -3 -42 6 -26 22 10 10
53 3 56 -9z"/>
<path d="M1314 3428 l-19 -23 23 19 c21 18 27 26 19 26 -2 0 -12 -10 -23 -22z"/>
<path d="M3790 3436 c0 -2 8 -10 18 -17 15 -13 16 -12 3 4 -13 16 -21 21 -21
13z"/>
<path d="M1662 3400 c-10 -16 -10 -20 2 -20 8 0 22 -10 30 -22 23 -32 20 0 -2
34 -17 26 -18 26 -30 8z"/>
<path d="M3292 3217 c-105 -106 -192 -197 -192 -202 0 -6 38 -9 100 -7 55 2
100 7 100 12 0 5 -37 10 -82 12 l-82 3 188 188 c103 103 181 187 174 187 -7 0
-100 -87 -206 -193z"/>
<path d="M1279 3383 c-13 -16 -12 -17 4 -4 9 7 17 15 17 17 0 8 -8 3 -21 -13z"/>
<path d="M3820 3396 c0 -2 8 -10 18 -17 15 -13 16 -12 3 4 -13 16 -21 21 -21
13z"/>
<path d="M1810 3183 c101 -104 187 -189 191 -191 5 -2 9 1 9 7 0 16 -353 371
-369 371 -7 0 69 -84 169 -187z"/>
<path d="M1249 3343 c-13 -16 -12 -17 4 -4 9 7 17 15 17 17 0 8 -8 3 -21 -13z"/>
<path d="M3770 3346 c0 -2 8 -10 18 -17 15 -13 16 -12 3 4 -13 16 -21 21 -21
13z"/>
<path d="M3616 3328 c5 -7 27 -38 50 -68 23 -30 60 -85 82 -122 37 -61 40 -68
24 -77 -16 -9 -15 -12 7 -33 13 -13 20 -17 16 -9 -4 7 -2 17 5 21 10 6 4 25
-25 76 -41 76 -145 223 -158 224 -5 0 -5 -6 -1 -12z"/>
<path d="M2203 3315 c-3 -9 1 -23 9 -33 8 -9 37 -57 63 -107 27 -49 50 -85 52
-79 2 6 -20 53 -49 105 -30 52 -52 102 -50 112 4 21 -16 23 -25 2z"/>
<path d="M1499 3283 c-29 -35 -41 -53 -36 -53 2 0 17 16 31 35 28 36 31 49 5
18z"/>
<path d="M3126 3202 c-9 -15 0 -106 10 -109 6 -2 10 19 10 51 -1 53 -9 76 -20
58z"/>
<path d="M1145 3169 c-9 -17 -15 -33 -13 -35 3 -2 12 12 21 31 21 43 13 47 -8
4z"/>
<path d="M1890 3185 c-16 -19 -6 -32 13 -17 17 15 27 6 27 -25 0 -12 5 -23 11
-23 6 0 9 16 7 38 -2 29 -8 38 -24 40 -11 2 -27 -4 -34 -13z"/>
<path d="M1390 3120 c-6 -11 -8 -20 -6 -20 3 0 10 9 16 20 6 11 8 20 6 20 -3
0 -10 -9 -16 -20z"/>
<path d="M1346 3035 c-9 -26 -7 -32 5 -12 6 10 9 21 6 23 -2 3 -7 -2 -11 -11z"/>
<path d="M2613 3023 c9 -2 23 -2 30 0 6 3 -1 5 -18 5 -16 0 -22 -2 -12 -5z"/>
<path d="M2478 3013 c7 -3 16 -2 19 1 4 3 -2 6 -13 5 -11 0 -14 -3 -6 -6z"/>
<path d="M1860 2990 c0 -5 20 -10 44 -10 25 0 48 5 51 10 4 6 -13 10 -44 10
-28 0 -51 -4 -51 -10z"/>
<path d="M2865 2950 c10 -11 20 -20 23 -20 3 0 -3 9 -13 20 -10 11 -20 20 -23
20 -3 0 3 -9 13 -20z"/>
<path d="M2855 2910 c10 -11 20 -20 23 -20 3 0 -3 9 -13 20 -10 11 -20 20 -23
20 -3 0 3 -9 13 -20z"/>
<path d="M2274 2888 l-29 -33 33 29 c17 17 32 31 32 33 0 8 -8 1 -36 -29z"/>
<path d="M1031 2824 c0 -11 3 -14 6 -6 3 7 2 16 -1 19 -3 4 -6 -2 -5 -13z"/>
<path d="M1162 2780 c0 -14 2 -19 5 -12 2 6 2 18 0 25 -3 6 -5 1 -5 -13z"/>
<path d="M1022 2760 c0 -14 2 -19 5 -12 2 6 2 18 0 25 -3 6 -5 1 -5 -13z"/>
<path d="M4101 2744 c0 -11 3 -14 6 -6 3 7 2 16 -1 19 -3 4 -6 -2 -5 -13z"/>
<path d="M1970 2675 l0 -65 -370 0 c-240 0 -370 -4 -370 -10 0 -6 130 -10 370
-10 l370 0 0 -50 c0 -27 5 -50 10 -50 6 0 10 48 10 125 0 77 -4 125 -10 125
-6 0 -10 -28 -10 -65z"/>
<path d="M3160 2671 c0 -54 -2 -60 -22 -64 l-23 -4 23 -8 c20 -7 22 -14 22
-76 0 -39 4 -69 10 -69 6 0 10 30 10 70 l0 70 360 0 c233 0 360 4 360 10 0 6
-127 10 -360 10 l-360 0 0 60 c0 33 -4 60 -10 60 -6 0 -10 -26 -10 -59z"/>
<path d="M1012 2680 c0 -14 2 -19 5 -12 2 6 2 18 0 25 -3 6 -5 1 -5 -13z"/>
<path d="M2162 2670 c0 -14 2 -19 5 -12 2 6 2 18 0 25 -3 6 -5 1 -5 -13z"/>
<path d="M4112 2670 c0 -14 2 -19 5 -12 2 6 2 18 0 25 -3 6 -5 1 -5 -13z"/>
<path d="M3968 2669 c-10 -5 -18 -21 -18 -35 0 -14 4 -22 10 -19 6 3 10 15 10
26 0 15 6 20 22 17 37 -5 32 -31 -9 -53 -28 -15 -39 -27 -41 -47 -3 -27 -2
-28 47 -28 35 0 51 4 51 13 0 9 -12 11 -41 9 -52 -5 -50 14 4 43 45 25 51 60
11 75 -30 12 -25 12 -46 -1z"/>
<path d="M1060 2590 c0 -49 4 -70 13 -70 9 0 11 19 9 70 -5 91 -22 91 -22 0z"/>
<path d="M1107 2653 c-12 -11 -7 -40 8 -53 9 -7 14 -19 11 -27 -10 -24 6 -43
34 -43 35 0 54 22 46 54 -7 28 -44 45 -56 26 -10 -17 -31 -3 -23 15 3 9 18 15
34 15 16 0 29 5 29 10 0 11 -73 14 -83 3z m73 -68 c16 -19 5 -35 -25 -35 -21
0 -22 2 -12 25 14 29 20 31 37 10z"/>
<path d="M4348 2613 c-23 -6 -30 -30 -13 -47 12 -12 11 -16 -5 -31 -38 -35
-26 -45 53 -45 58 0 74 3 74 15 0 8 -6 16 -14 19 -7 3 -13 1 -13 -4 0 -6 -21
-10 -47 -10 -45 0 -46 0 -28 20 10 11 26 22 36 25 32 10 10 27 -24 19 -28 -6
-30 -5 -18 10 7 9 20 16 28 16 8 0 11 5 8 10 -6 10 -9 11 -37 3z"/>
<path d="M677 2593 c-16 -15 -4 -21 36 -16 l42 5 -42 -44 c-24 -24 -43 -47
-43 -51 0 -13 113 -3 117 9 3 8 -11 10 -43 6 l-48 -5 34 30 c28 25 39 29 58
22 32 -12 212 -12 212 1 0 6 -45 10 -116 10 -111 0 -115 1 -109 20 6 18 2 20
-43 20 -27 0 -52 -3 -55 -7z"/>
<path d="M4120 2560 c0 -6 38 -10 95 -10 57 0 95 4 95 10 0 6 -38 10 -95 10
-57 0 -95 -4 -95 -10z"/>
<path d="M2171 2434 c0 -11 3 -14 6 -6 3 7 2 16 -1 19 -3 4 -6 -2 -5 -13z"/>
<path d="M3530 2405 c-14 -17 -7 -43 15 -50 51 -16 49 -14 30 -35 -17 -19 -19
-19 -37 -4 -17 16 -18 16 -18 0 0 -36 74 -32 85 5 8 24 -11 49 -40 53 -11 2
-21 9 -23 16 -3 9 4 11 27 8 21 -3 31 0 31 9 0 18 -54 17 -70 -2z"/>
<path d="M2180 2405 c0 -5 5 -17 10 -25 5 -8 10 -10 10 -5 0 6 -5 17 -10 25
-5 8 -10 11 -10 5z"/>
<path d="M1527 2377 c-9 -23 4 -29 23 -12 15 13 19 13 29 1 9 -11 8 -15 -6
-21 -17 -6 -17 -7 2 -21 18 -13 18 -15 3 -31 -14 -14 -20 -14 -33 -3 -8 7 -19
10 -23 6 -8 -8 25 -36 43 -36 29 0 45 35 37 81 -7 40 -10 44 -38 47 -21 2 -33
-2 -37 -11z"/>
<path d="M4112 2370 c0 -14 2 -19 5 -12 2 6 2 18 0 25 -3 6 -5 1 -5 -13z"/>
<path d="M3628 2364 c-4 -3 -4 -12 -2 -19 3 -7 -2 -25 -11 -39 l-17 -26 36 0
c20 0 36 5 36 10 0 6 -7 10 -16 10 -11 0 -14 6 -9 23 4 12 8 26 9 31 1 11 -18
19 -26 10z"/>
<path d="M1623 2328 c2 -7 0 -23 -4 -35 -8 -20 -5 -23 19 -22 15 0 21 3 15 6
-7 2 -13 18 -13 34 0 16 -5 29 -11 29 -6 0 -9 -6 -6 -12z"/>
<path d="M2220 2321 c5 -11 15 -23 21 -27 6 -3 3 5 -6 20 -20 30 -30 35 -15 7z"/>
<path d="M1032 2280 c0 -14 2 -19 5 -12 2 6 2 18 0 25 -3 6 -5 1 -5 -13z"/>
<path d="M2275 2250 c10 -11 20 -20 23 -20 3 0 -3 9 -13 20 -10 11 -20 20 -23
20 -3 0 3 -9 13 -20z"/>
<path d="M4031 2254 c0 -11 3 -14 6 -6 3 7 2 16 -1 19 -3 4 -6 -2 -5 -13z"/>
<path d="M1041 2214 c0 -11 3 -14 6 -6 3 7 2 16 -1 19 -3 4 -6 -2 -5 -13z"/>
<path d="M2320 2216 c0 -2 8 -10 18 -17 15 -13 16 -12 3 4 -13 16 -21 21 -21
13z"/>
<path d="M1051 2164 c0 -11 3 -14 6 -6 3 7 2 16 -1 19 -3 4 -6 -2 -5 -13z"/>
<path d="M2394 2166 c11 -9 24 -16 30 -16 12 0 7 5 -24 19 -24 11 -24 11 -6
-3z"/>
<path d="M3100 2152 c0 -13 409 -406 416 -399 6 5 -389 399 -407 405 -5 2 -9
-1 -9 -6z"/>
<path d="M2017 2122 c-20 -22 -23 -97 -5 -108 7 -4 31 -9 54 -10 38 -3 45 1
95 53 l54 57 -50 -43 c-27 -24 -58 -47 -67 -52 -14 -8 -16 -5 -8 20 21 75 -29
132 -73 83z m53 -22 c0 -18 -17 -26 -44 -21 -5 1 -3 -5 4 -14 7 -9 19 -14 27
-11 7 3 13 -1 13 -8 0 -21 -28 -27 -45 -10 -18 18 -18 25 -3 59 14 30 48 34
48 5z"/>
<path d="M1960 2085 l0 -45 -55 0 c-30 0 -55 -4 -55 -9 0 -9 118 -20 126 -12
9 9 3 111 -6 111 -5 0 -10 -20 -10 -45z"/>
<path d="M3000 1991 c0 -54 4 -91 10 -91 6 0 10 35 10 84 0 47 -4 88 -10 91
-6 4 -10 -27 -10 -84z"/>
<path d="M3380 1960 c-14 -26 -13 -27 15 -27 33 0 36 8 14 29 -18 17 -19 17
-29 -2z"/>
<path d="M1925 1920 c-44 -3 -63 -8 -50 -12 11 -4 38 -6 59 -5 l39 2 -94 -85
c-152 -138 -205 -190 -194 -190 12 0 276 234 288 255 4 8 19 15 32 15 14 0 25
5 25 11 0 6 -6 9 -14 6 -8 -3 -16 -3 -18 1 -2 4 -34 5 -73 2z"/>
<path d="M1136 1889 c5 -24 2 -27 -38 -35 -24 -5 -38 -12 -33 -15 6 -4 44 2
85 12 41 10 81 17 88 14 6 -2 12 -1 12 3 0 5 30 14 68 22 37 7 62 15 56 17 -6
2 -53 -5 -105 -17 -115 -25 -114 -25 -127 3 -11 21 -11 21 -6 -4z"/>
<path d="M3873 1874 c9 -3 17 -9 17 -14 0 -4 8 -6 19 -3 10 2 24 -1 32 -9 8
-7 30 -14 49 -15 34 -3 34 -2 10 9 -14 7 -27 15 -30 18 -3 3 -14 6 -25 7 -11
2 -36 5 -55 7 -19 3 -27 2 -17 0z"/>
<path d="M2018 1853 c-61 -5 -63 -23 -3 -23 l45 0 0 -74 c0 -41 5 -78 10 -81
6 -4 10 28 10 89 0 53 -3 95 -7 94 -5 -1 -29 -3 -55 -5z"/>
<path d="M2972 1838 c-13 -13 -16 -65 -6 -92 4 -10 18 -16 35 -16 35 0 51 27
47 78 -3 33 -6 37 -33 40 -17 2 -36 -3 -43 -10z m55 -20 c-2 -7 -12 -12 -21
-12 -23 2 -20 -13 5 -19 24 -6 21 -30 -4 -35 -21 -4 -31 20 -23 53 4 17 13 25
27 25 12 0 19 -5 16 -12z"/>
<path d="M1170 1816 c0 -11 50 -106 55 -106 3 0 -7 24 -21 53 -28 55 -34 65
-34 53z"/>
<path d="M1390 1730 c6 -11 13 -20 16 -20 2 0 0 9 -6 20 -6 11 -13 20 -16 20
-2 0 0 -9 6 -20z"/>
<path d="M3516 1723 c-13 -14 -5 -33 14 -33 11 0 20 6 20 14 0 15 -24 28 -34
19z"/>
<path d="M1450 1650 c0 -18 169 -187 244 -244 147 -111 342 -201 526 -242 36
-8 76 -17 88 -20 13 -2 21 -1 18 4 -3 5 -31 14 -63 21 -293 65 -531 196 -726
401 -48 50 -87 86 -87 80z"/>
<path d="M3570 1623 c0 -5 9 -19 20 -33 25 -32 25 -38 -2 -69 l-23 -25 29 23
c17 12 46 41 65 64 l35 42 -35 -33 -36 -33 -19 36 c-17 32 -34 46 -34 28z"/>
<path d="M1290 1596 c0 -2 8 -10 18 -17 15 -13 16 -12 3 4 -13 16 -21 21 -21
13z"/>
<path d="M1450 1545 c13 -14 26 -25 28 -25 3 0 -5 11 -18 25 -13 14 -26 25
-28 25 -3 0 5 -11 18 -25z"/>
<path d="M1365 1500 c10 -11 20 -20 23 -20 3 0 -3 9 -13 20 -10 11 -20 20 -23
20 -3 0 3 -9 13 -20z"/>
<path d="M3650 1453 l-55 -58 58 55 c53 50 62 60 54 60 -1 0 -27 -26 -57 -57z"/>
<path d="M3734 1488 l-19 -23 23 19 c21 18 27 26 19 26 -2 0 -12 -10 -23 -22z"/>
<path d="M3529 1473 c-13 -16 -12 -17 4 -4 16 13 21 21 13 21 -2 0 -10 -8 -17
-17z"/>
<path d="M1450 1405 c30 -30 57 -55 59 -55 3 0 -19 25 -49 55 -30 30 -57 55
-59 55 -3 0 19 -25 49 -55z"/>
<path d="M3479 1433 c-13 -16 -12 -17 4 -4 16 13 21 21 13 21 -2 0 -10 -8 -17
-17z"/>
<path d="M1964 1396 c11 -9 24 -16 30 -16 12 0 7 5 -24 19 -24 11 -24 11 -6
-3z"/>
<path d="M2010 1376 c0 -2 7 -7 16 -10 8 -3 12 -2 9 4 -6 10 -25 14 -25 6z"/>
<path d="M3539 1353 c-13 -16 -12 -17 4 -4 9 7 17 15 17 17 0 8 -8 3 -21 -13z"/>
<path d="M3489 1313 c-13 -16 -12 -17 4 -4 9 7 17 15 17 17 0 8 -8 3 -21 -13z"/>
<path d="M1550 1307 c0 -2 15 -16 33 -33 l32 -29 -29 33 c-28 30 -36 37 -36
29z"/>
<path d="M3039 1235 c-189 -66 -520 -78 -774 -29 -22 4 -27 3 -20 -5 32 -33
405 -53 570 -30 98 13 212 42 267 68 57 26 38 24 -43 -4z"/>
<path d="M1630 1236 c0 -2 8 -10 18 -17 15 -13 16 -12 3 4 -13 16 -21 21 -21
13z"/>
<path d="M2868 1233 c7 -3 16 -2 19 1 4 3 -2 6 -13 5 -11 0 -14 -3 -6 -6z"/>
<path d="M2808 1223 c6 -2 18 -2 25 0 6 3 1 5 -13 5 -14 0 -19 -2 -12 -5z"/>
<path d="M2708 1213 c12 -2 30 -2 40 0 9 3 -1 5 -23 4 -22 0 -30 -2 -17 -4z"/>
<path d="M3250 1180 c-8 -5 -10 -10 -5 -10 6 0 17 5 25 10 8 5 11 10 5 10 -5
0 -17 -5 -25 -10z"/>
<path d="M2888 1063 c7 -3 16 -2 19 1 4 3 -2 6 -13 5 -11 0 -14 -3 -6 -6z"/>
<path d="M2828 1053 c7 -3 16 -2 19 1 4 3 -2 6 -13 5 -11 0 -14 -3 -6 -6z"/>
<path d="M2551 973 c0 -29 3 -53 7 -53 4 0 6 17 4 38 -6 64 -10 69 -11 15z"/>
<path d="M2298 933 c7 -3 16 -2 19 1 4 3 -2 6 -13 5 -11 0 -14 -3 -6 -6z"/>
<path d="M2363 923 c9 -2 23 -2 30 0 6 3 -1 5 -18 5 -16 0 -22 -2 -12 -5z"/>
</g>
</svg>