<?xml version="1.0" encoding="UTF-8"?>
<svg width="100" height="100" viewBox="0 0 100 100" xmlns="http://www.w3.org/2000/svg">
  <path d="M50 5
           C 25 5, 5 25, 5 50
           C 5 75, 25 95, 50 95
           C 75 95, 95 75, 95 50
           C 95 25, 75 5, 50 5
           M 50 20
           C 35 20, 20 35, 20 50
           C 20 65, 35 80, 50 80
           C 65 80, 80 65, 80 50
           C 80 35, 65 20, 50 20
           M 50 35
           L 65 50
           L 50 65
           L 35 50
           Z"
        fill="#F59E0B"
        fill-opacity="0.2"/>
</svg> 