<?xml version="1.0" standalone="no"?>
<!DOCTYPE svg PUBLIC "-//W3C//DTD SVG 20010904//EN"
 "http://www.w3.org/TR/2001/REC-SVG-20010904/DTD/svg10.dtd">
<svg version="1.0" xmlns="http://www.w3.org/2000/svg"
 width="512.000000pt" height="512.000000pt" viewBox="0 0 512.000000 512.000000"
 preserveAspectRatio="xMidYMid meet">
<metadata>
Created by potrace 1.16, written by Peter Selinger 2001-2019
</metadata>
<g transform="translate(0.000000,512.000000) scale(0.100000,-0.100000)"
fill="#000000" stroke="none">
<path d="M4212 4534 c-12 -8 -22 -23 -22 -33 0 -21 30 -51 52 -51 19 0 48 32
48 53 0 14 -35 47 -50 47 -3 0 -16 -7 -28 -16z m48 -28 c0 -20 -19 -31 -32
-18 -6 6 -7 15 -4 21 10 16 36 13 36 -3z"/>
<path d="M3685 4479 l-35 -31 -178 -5 c-97 -3 -179 -7 -181 -9 -2 -2 146 -4
331 -4 l335 0 23 25 c19 20 33 25 71 25 52 0 79 7 79 21 0 5 -28 9 -62 9 -55
0 -66 -3 -93 -29 -29 -28 -34 -29 -170 -36 l-140 -7 24 26 c24 25 28 26 147
26 71 0 125 4 129 10 4 6 -38 10 -119 10 l-125 0 -36 -31z"/>
<path d="M4300 4424 c0 -8 5 -12 10 -9 6 3 10 10 10 16 0 5 -4 9 -10 9 -5 0
-10 -7 -10 -16z"/>
<path d="M4073 4351 c-26 -21 -113 -98 -192 -170 l-143 -131 -70 0 c-82 0
-106 -11 -172 -79 -72 -74 -48 -75 29 -2 l65 62 62 -1 c35 -1 69 -1 75 -1 12
1 41 25 282 240 l113 101 87 0 c62 0 93 -4 109 -16 29 -20 29 -8 0 17 -19 15
-40 18 -110 19 -86 0 -87 0 -135 -39z"/>
<path d="M3165 4366 c-50 -21 -110 -97 -123 -156 -13 -55 -17 -661 -6 -757 6
-50 12 -59 99 -150 82 -87 94 -96 109 -84 9 7 16 18 16 24 0 5 -38 48 -84 96
-46 47 -90 100 -99 116 -13 25 -16 93 -19 401 l-3 371 30 42 c16 24 43 54 61
67 l31 24 316 0 c210 0 317 3 317 10 0 16 -607 12 -645 -4z"/>
<path d="M3188 4317 c-40 -24 -66 -54 -92 -104 -13 -26 -16 -64 -16 -195 0
-211 17 -197 22 18 3 159 3 161 32 202 57 83 54 82 394 82 190 0 303 4 307 10
4 7 -99 10 -302 10 -302 0 -309 -1 -345 -23z"/>
<path d="M2442 4294 c-31 -21 -29 -61 3 -76 21 -9 28 -8 45 7 25 23 26 47 2
68 -23 21 -22 21 -50 1z m38 -28 c0 -16 -18 -31 -27 -22 -8 8 5 36 17 36 5 0
10 -6 10 -14z"/>
<path d="M4127 4272 c-47 -49 -32 -124 33 -157 55 -28 130 27 130 95 0 83
-105 123 -163 62z m120 -14 c31 -29 30 -72 -2 -103 -69 -70 -170 30 -103 102
28 30 74 30 105 1z"/>
<path d="M4435 4281 c-6 -11 9 -23 19 -14 9 9 7 23 -3 23 -6 0 -12 -4 -16 -9z"/>
<path d="M3233 4260 c-64 -39 -63 -29 -63 -440 l-1 -374 73 -73 c40 -40 77
-73 82 -73 5 0 -23 33 -62 74 -69 71 -72 76 -72 122 0 47 2 51 81 130 l82 82
5 76 c4 73 6 75 44 107 26 20 36 35 30 41 -6 6 -24 -6 -51 -34 -39 -42 -41
-45 -41 -112 l0 -69 -75 -76 -75 -76 0 313 0 314 29 29 29 29 316 0 c274 0
316 2 316 15 0 13 -41 15 -307 15 -288 0 -310 -1 -340 -20z"/>
<path d="M4407 4194 c-3 -4 7 -20 23 -36 l30 -30 0 -371 0 -372 -72 -67 -73
-68 -3 358 -2 357 26 21 c16 13 24 27 19 34 -8 13 -39 -10 -58 -45 -9 -14 -13
-205 -17 -672 -6 -741 3 -673 -94 -740 -71 -49 -130 -43 -161 17 -11 22 -15
67 -16 182 -1 84 -5 200 -9 258 -5 84 -7 52 -8 -153 -2 -277 2 -308 49 -341
30 -21 107 -21 139 1 41 27 91 76 106 105 11 21 14 82 14 288 0 174 4 269 11
283 6 12 48 56 93 98 l81 76 3 349 c2 192 0 363 -3 381 -3 18 -17 46 -31 63
-26 30 -35 35 -47 24z"/>
<path d="M2938 4101 c-5 -52 -8 -129 -8 -171 0 -67 -3 -79 -23 -98 -13 -12
-27 -22 -32 -22 -4 0 -6 78 -3 173 2 94 1 154 -3 132 -4 -22 -8 -141 -8 -264
l-1 -224 -65 -59 -65 -60 0 -61 c1 -39 6 -69 15 -81 11 -15 15 -51 15 -147 0
-151 19 -192 22 -47 2 140 -2 180 -23 207 -12 15 -19 40 -19 70 0 43 3 49 63
104 l62 59 6 -114 5 -113 2 116 2 117 57 52 c47 43 52 51 32 48 -20 -2 -24 2
-27 27 -2 22 4 37 23 55 l25 23 -2 186 -2 186 -3 -175 c-3 -173 -4 -175 -30
-202 -23 -24 -25 -33 -20 -76 5 -43 3 -52 -16 -69 -41 -37 -44 -35 -44 30 l0
62 7 -50 7 -50 1 65 c2 57 5 68 32 95 l30 31 -2 170 c-3 162 -3 165 -10 75z"/>
<path d="M2426 4148 c-11 -15 -16 -45 -16 -90 0 -56 -3 -69 -19 -78 -12 -6
-96 -10 -204 -10 -153 0 -187 3 -197 15 -24 28 -97 -16 -83 -50 7 -20 63 -20
63 0 0 13 30 15 213 15 254 0 247 -3 247 106 0 41 5 75 12 82 8 8 59 12 165
12 95 0 153 4 153 10 0 6 -60 10 -159 10 -154 0 -160 -1 -175 -22z m-476 -203
c0 -8 -4 -15 -10 -15 -5 0 -10 7 -10 15 0 8 5 15 10 15 6 0 10 -7 10 -15z"/>
<path d="M3830 4014 c-110 -101 -139 -123 -158 -119 -18 4 -36 -7 -81 -50 -66
-63 -91 -68 -133 -28 -35 33 -44 27 -14 -10 14 -17 36 -30 59 -34 33 -5 40 -1
96 52 42 40 65 55 77 51 11 -4 36 11 78 48 119 106 231 215 221 215 -5 0 -71
-56 -145 -125z"/>
<path d="M4060 4087 c0 -9 5 -17 11 -19 5 -2 14 -30 18 -63 5 -32 13 -61 20
-63 6 -2 11 -27 11 -62 l0 -59 -69 -58 c-37 -32 -111 -96 -164 -143 l-95 -85
-1 -53 c-1 -33 3 -51 9 -47 6 3 10 24 10 45 0 37 6 44 132 157 220 197 198
168 198 266 0 68 -4 89 -19 109 -11 13 -21 37 -23 53 -3 31 -38 50 -38 22z"/>
<path d="M3877 3889 c-93 -83 -170 -149 -172 -147 -3 2 51 59 119 126 67 67
120 122 116 122 -4 0 -60 -50 -124 -111 -80 -76 -119 -121 -123 -140 -3 -16
-9 -26 -13 -24 -5 3 -29 -11 -54 -30 l-46 -35 -113 0 -113 0 -72 -60 c-96 -82
-96 -91 6 -193 43 -43 81 -75 85 -71 3 4 -27 38 -68 76 -98 92 -99 107 -11
177 l64 51 108 0 c113 0 115 1 195 54 74 49 413 355 394 356 -5 0 -86 -68
-178 -151z"/>
<path d="M2470 3985 c-9 -11 -10 -19 -3 -26 17 -17 48 -6 48 16 0 25 -28 31
-45 10z"/>
<path d="M2545 3990 c3 -5 15 -10 26 -10 26 0 24 -16 -6 -45 l-24 -25 -234 0
c-185 0 -237 -3 -253 -14 -16 -13 -19 -29 -22 -130 -4 -116 -4 -116 -32 -131
-16 -8 -38 -27 -49 -41 -19 -24 -21 -40 -21 -167 0 -139 0 -141 27 -169 l27
-28 149 0 149 0 65 -60 c65 -59 66 -60 127 -60 37 -1 68 -6 80 -15 18 -14 18
-15 -15 -29 -30 -13 -37 -13 -56 0 -26 17 -33 17 -33 4 0 -5 11 -17 24 -25 21
-14 28 -14 58 -2 18 7 50 12 72 9 48 -6 47 18 -2 30 -17 5 -38 18 -46 30 -14
19 -24 22 -76 21 l-60 -2 -64 59 -64 60 -149 0 c-143 0 -150 1 -171 23 -18 19
-22 35 -22 85 0 34 4 62 9 62 5 0 18 -16 30 -35 20 -35 21 -35 83 -33 l63 2
-52 3 c-46 4 -56 8 -79 38 -14 19 -35 37 -46 41 -19 6 -20 12 -15 67 5 55 9
65 39 89 82 68 77 57 71 157 -5 74 -3 95 11 116 l16 25 238 0 237 0 43 39 c53
49 49 71 -15 71 -27 0 -42 -4 -38 -10z"/>
<path d="M2697 3993 c-4 -3 -7 -40 -7 -80 l0 -74 57 -69 c31 -38 60 -67 65
-64 17 10 7 50 -22 88 -27 35 -30 47 -30 111 0 42 -5 76 -12 83 -13 13 -41 16
-51 5z m47 -35 c3 -13 6 -50 6 -83 0 -53 4 -65 30 -95 28 -33 41 -68 21 -55
-5 3 -30 33 -55 66 -47 63 -54 88 -40 158 8 36 29 41 38 9z"/>
<path d="M4172 3960 c0 -14 2 -19 5 -12 2 6 2 18 0 25 -3 6 -5 1 -5 -13z"/>
<path d="M4019 3884 c-18 -20 -104 -99 -191 -175 -86 -77 -163 -151 -172 -164
-14 -21 -16 -62 -16 -269 0 -172 -3 -247 -11 -252 -7 -4 -172 -9 -368 -12
l-356 -5 -33 -33 -34 -34 -222 0 -222 0 -36 38 c-19 20 -39 51 -42 67 -4 17
-19 42 -34 58 l-26 27 -203 0 c-134 0 -202 -3 -198 -10 4 -6 82 -10 201 -10
l195 0 24 -26 c14 -15 25 -38 25 -52 0 -16 16 -40 44 -68 l43 -44 230 0 229 0
34 35 34 35 351 0 c301 0 354 2 373 16 22 15 22 18 22 259 0 134 3 250 6 259
3 8 88 90 189 181 167 151 229 215 207 215 -4 0 -24 -16 -43 -36z"/>
<path d="M1872 3883 l-32 -28 -2 -348 -3 -347 168 0 c104 0 167 4 167 10 0 6
-60 10 -160 10 l-160 0 0 334 0 335 37 30 c21 17 33 31 27 31 -5 0 -24 -12
-42 -27z"/>
<path d="M2374 3835 c-21 -32 -15 -56 18 -74 24 -14 28 -14 47 3 26 24 27 58
3 79 -26 24 -49 21 -68 -8z m61 -30 c0 -30 -39 -27 -43 3 -3 20 0 23 20 20 15
-2 23 -10 23 -23z"/>
<path d="M4158 3843 c8 -15 12 -93 12 -241 l0 -219 -40 -46 -40 -45 0 -322 c0
-211 3 -319 10 -315 6 4 10 121 10 320 l0 313 35 42 35 42 0 233 c0 205 -2
234 -17 246 -15 13 -15 12 -5 -8z"/>
<path d="M2558 3817 l32 -33 0 -286 c0 -158 -3 -293 -6 -302 -5 -12 -21 -16
-72 -16 -63 0 -68 2 -104 37 -50 49 -62 33 -13 -17 38 -39 40 -40 111 -40 53
0 77 4 88 16 14 13 16 56 16 315 l0 301 -29 29 c-16 16 -35 29 -42 29 -7 0 1
-15 19 -33z"/>
<path d="M2170 3830 c-12 -7 -15 -34 -17 -120 -2 -137 -9 -150 -90 -150 -36 0
-53 -4 -53 -13 0 -20 115 -6 138 16 14 14 18 41 22 140 4 108 7 122 23 121 9
-1 17 2 17 7 0 12 -21 11 -40 -1z"/>
<path d="M4015 3830 c-3 -5 -4 -10 -2 -10 2 0 -37 -40 -87 -89 -50 -50 -88
-92 -85 -95 5 -6 191 176 197 193 5 14 -15 15 -23 1z"/>
<path d="M1252 3798 c-16 -16 -15 -33 2 -47 30 -25 67 16 40 44 -19 18 -26 19
-42 3z m38 -23 c0 -8 -6 -15 -14 -15 -17 0 -28 14 -19 24 12 12 33 6 33 -9z"/>
<path d="M1769 3793 c21 -17 22 -25 19 -157 l-3 -140 -34 -9 c-53 -13 -72 -2
-125 73 l-49 70 -245 0 c-270 0 -292 -4 -335 -64 -21 -30 -22 -42 -25 -258
l-3 -228 -81 0 c-72 0 -85 -3 -117 -26 -52 -39 -61 -53 -61 -97 0 -34 8 -48
61 -104 l60 -65 -35 -33 -36 -33 0 -515 0 -516 32 -25 c41 -32 48 -26 14 11
l-26 28 0 227 0 228 98 0 c63 0 102 -4 110 -12 9 -9 12 -96 12 -328 l0 -317
-25 -23 -25 -23 0 141 0 142 -67 0 c-76 0 -81 -8 -7 -13 l49 -3 3 -143 3 -143
-101 -101 -100 -101 0 -72 c0 -40 5 -76 10 -79 6 -4 10 21 10 67 l0 73 135
135 134 135 0 325 c0 240 -3 329 -12 341 -23 29 -56 39 -136 39 l-79 0 -7 63
c-4 34 -5 135 -3 224 l3 162 41 43 c22 24 68 77 102 118 60 75 61 76 64 145
l3 70 285 -3 c235 -3 288 -1 304 11 12 9 17 20 13 31 -6 14 -33 16 -255 16
-179 0 -251 3 -260 12 -8 8 -12 68 -12 204 0 252 -5 244 155 244 l114 0 46
-40 46 -40 173 0 c120 0 176 4 184 12 8 8 12 59 12 165 0 140 -2 153 -19 163
-30 16 -36 12 -12 -7z m-151 -248 l43 -55 -63 -2 c-142 -5 -170 0 -208 37
l-36 35 -126 0 c-184 0 -172 17 -176 -260 l-3 -221 -27 3 -27 3 -1 165 c-1
246 5 286 44 321 l32 29 253 0 252 0 43 -55z m-646 -580 c-3 -57 -6 -62 -56
-113 l-53 -53 -66 64 c-76 73 -84 101 -42 143 24 23 30 25 122 22 l98 -3 -3
-60z m-151 -233 c-12 -22 -41 -48 -41 -36 0 8 40 54 47 54 2 0 -1 -8 -6 -18z"/>
<path d="M1660 3696 c0 -21 -33 -26 -192 -26 -105 0 -148 -3 -148 -12 0 -8 46
-10 175 -5 l175 6 -6 -23 c-7 -28 14 -47 44 -39 23 6 30 37 12 48 -6 4 -8 16
-4 27 4 13 1 24 -7 29 -21 13 -49 11 -49 -5z"/>
<path d="M4081 3618 c-8 -13 -38 -53 -67 -89 l-53 -65 -3 -411 c-3 -399 -4
-412 -24 -440 -13 -17 -39 -33 -67 -42 l-47 -15 0 -191 0 -192 -40 -32 c-22
-18 -38 -36 -35 -40 2 -5 -3 -15 -13 -23 -13 -12 -54 -17 -166 -21 -107 -4
-151 -10 -157 -19 -5 -7 -9 -64 -9 -126 0 -137 8 -156 91 -212 l60 -41 -3 53
-3 53 -48 0 c-70 0 -77 14 -77 151 0 122 1 123 69 124 20 0 22 -3 13 -12 -7
-7 -12 -42 -12 -85 l0 -74 75 -76 75 -77 0 -202 0 -203 -32 -30 c-20 -19 -44
-31 -60 -31 l-28 0 0 110 c0 84 4 117 16 135 30 46 -17 101 -65 76 -28 -15
-29 -66 -1 -83 18 -12 20 -24 20 -125 l0 -113 -70 0 c-58 0 -73 -4 -87 -20
-16 -19 -30 -20 -191 -20 -151 0 -173 2 -179 16 -4 10 1 22 11 30 16 11 16 13
1 21 -14 8 -10 15 24 46 l41 37 93 0 94 0 61 56 62 56 0 304 c0 196 -4 304
-10 304 -6 0 -10 -61 -10 -163 l0 -162 -119 -110 -119 -110 -150 -5 -151 -5
-98 -96 c-149 -145 -142 -141 -278 -137 -63 1 -115 0 -115 -4 0 -12 225 -9
257 3 15 5 73 55 129 109 l101 98 142 1 c88 1 150 5 164 13 12 6 69 56 127
110 l105 99 3 -122 3 -122 -53 -48 -53 -48 -93 -1 -93 0 -49 -46 c-43 -40 -50
-52 -50 -85 0 -28 5 -41 19 -49 11 -6 87 -10 175 -10 97 0 156 -4 156 -10 0
-6 -100 -10 -280 -10 l-280 0 0 75 c0 61 -3 75 -15 75 -13 0 -15 -14 -13 -87
l3 -88 283 4 c218 3 282 1 282 -8 0 -7 -28 -42 -62 -77 l-61 -64 -160 0 -161
0 -27 32 c-16 18 -28 28 -29 22 0 -7 13 -26 29 -43 l29 -31 155 0 c143 0 156
2 183 22 55 41 103 91 115 119 10 25 17 29 51 29 44 0 48 -17 9 -36 -13 -7
-40 -29 -62 -50 -32 -31 -39 -44 -38 -74 2 -33 2 -34 6 -5 6 37 30 65 108 121
45 34 68 44 97 44 l38 0 0 -114 0 -114 -101 -96 c-67 -64 -113 -99 -137 -106
-25 -8 -373 -10 -1109 -8 -1069 3 -1072 3 -1100 24 -15 11 -38 36 -50 54 -22
31 -23 43 -23 217 0 116 4 192 11 206 6 12 41 52 77 90 61 61 70 67 107 67 39
0 47 6 124 85 45 46 81 91 79 99 -4 19 -129 148 -136 141 -3 -3 25 -36 62 -74
l68 -68 -79 -76 c-69 -68 -82 -77 -116 -77 -32 0 -47 -8 -95 -52 -124 -116
-121 -107 -122 -343 0 -198 0 -201 25 -238 14 -20 43 -46 65 -57 39 -20 58
-20 1127 -20 l1088 0 37 23 c20 12 77 61 127 109 l90 87 3 118 3 118 327 5
327 5 30 29 31 30 0 246 0 247 -25 23 c-15 14 -25 35 -25 52 0 15 -4 28 -10
28 -21 0 -3 -68 25 -96 12 -13 15 -55 15 -249 0 -233 0 -234 -24 -262 l-24
-28 -326 -3 c-221 -2 -326 1 -326 8 0 6 33 10 86 10 l86 0 39 39 39 39 0 154
c0 165 4 179 50 177 23 -2 23 -2 3 -6 -23 -4 -23 -7 -23 -149 0 -159 -9 -196
-55 -232 -36 -29 -28 -37 11 -13 54 33 64 71 64 235 0 91 4 146 10 146 6 0 10
-53 10 -140 0 -87 4 -140 10 -140 6 0 10 53 10 140 l0 140 65 0 65 0 0 -88 c0
-81 -2 -90 -25 -112 -24 -23 -36 -80 -16 -80 5 0 7 8 4 18 -2 11 6 32 21 49
24 28 26 38 26 127 l0 95 -72 4 c-72 3 -72 3 18 5 122 3 124 5 124 147 l0 109
-39 41 c-21 22 -42 51 -46 65 -7 22 -6 23 9 7 9 -9 37 -33 61 -53 l45 -36 0
-135 0 -134 -35 -20 -35 -21 0 -140 c0 -90 4 -137 10 -133 6 4 10 61 10 138
l0 132 33 15 32 15 3 147 3 147 -40 32 c-22 17 -38 36 -35 40 3 5 48 9 100 9
134 0 134 0 134 180 0 118 2 140 15 140 13 0 15 -62 15 -499 0 -431 -2 -500
-15 -511 -16 -13 -20 -57 -6 -78 5 -8 23 -12 47 -10 38 3 39 4 42 46 3 33 -1
44 -15 49 -23 9 -33 23 -33 51 0 20 5 22 53 22 32 0 61 6 76 16 49 35 51 54
51 484 0 397 -3 432 -33 452 -16 10 -290 -3 -304 -14 -9 -7 -13 -43 -13 -112
0 -55 -4 -107 -9 -115 -7 -11 -45 -15 -167 -18 -87 -2 -163 -8 -168 -13 -15
-15 -14 -156 2 -172 7 -7 46 -15 90 -18 l77 -5 3 -114 c2 -101 1 -113 -13
-107 -9 3 -39 6 -65 6 l-49 0 -3 48 c-3 44 -5 48 -36 57 -19 5 -56 34 -88 66
l-54 58 0 90 0 91 26 0 c15 0 34 10 47 26 12 15 39 45 60 69 l37 42 0 186 0
185 34 6 c22 4 46 20 65 42 l31 35 0 407 0 408 66 86 c36 48 64 92 62 98 -1 5
-9 0 -17 -12z m377 -1330 c9 -9 12 -118 12 -429 0 -230 -3 -425 -6 -434 -9
-24 -58 -45 -104 -45 l-40 0 0 454 0 455 53 4 c28 2 57 4 63 5 5 1 15 -3 22
-10z m-208 -138 c0 -169 5 -164 -141 -158 -76 3 -103 8 -116 21 -16 16 -13 17
63 17 57 0 86 5 103 16 17 12 26 13 34 5 6 -6 18 -11 26 -11 11 0 10 4 -5 19
-10 10 -25 16 -31 13 -10 -3 -13 21 -13 100 0 58 3 108 7 111 3 4 21 7 40 7
l33 0 0 -140z m-600 -195 c0 -55 5 -96 14 -113 22 -41 99 -112 132 -121 26 -7
29 -12 32 -54 l3 -47 -33 0 c-56 0 -58 -8 -58 -186 l0 -162 -35 -31 c-34 -29
-41 -31 -115 -31 -47 0 -80 4 -80 10 0 6 24 10 54 10 127 0 136 18 136 268 l0
189 -95 94 -95 93 0 76 c0 42 3 80 7 83 3 4 35 7 70 7 l63 0 0 -85z m293 63
c14 -11 6 -13 -50 -12 -84 0 -92 2 -73 14 22 14 103 12 123 -2z m17 -73 c6
-19 27 -47 46 -61 l34 -26 0 -114 c0 -63 -2 -114 -4 -114 -2 0 -11 -3 -20 -6
-14 -5 -16 8 -16 104 0 137 -4 142 -99 142 -39 0 -72 5 -79 12 -7 7 -12 31
-12 55 l0 43 69 0 69 0 12 -35z m-280 -463 c0 -181 0 -183 -25 -207 -13 -14
-31 -25 -39 -25 -9 0 -4 10 15 29 l29 29 0 194 c0 128 4 188 10 178 5 -8 10
-97 10 -198z m-163 52 c3 -8 1 -20 -6 -27 -14 -14 -47 15 -37 32 10 16 36 13
43 -5z m831 -291 c3 -31 1 -33 -27 -33 -27 0 -31 3 -31 28 0 35 8 44 35 40 15
-2 21 -12 23 -35z m-858 -23 c0 -6 -32 -10 -76 -10 -47 0 -73 4 -69 10 3 6 37
10 76 10 39 0 69 -4 69 -10z m0 -40 c0 -6 -39 -10 -96 -10 -61 0 -93 4 -89 10
3 6 46 10 96 10 53 0 89 -4 89 -10z"/>
<path d="M3896 3567 c-61 -58 -66 -65 -66 -105 0 -23 5 -42 10 -42 6 0 10 21
10 47 0 44 3 49 63 105 34 32 59 58 56 58 -3 0 -36 -28 -73 -63z"/>
<path d="M2447 3592 c-36 -39 -12 -86 40 -80 38 4 55 49 28 78 -23 25 -47 26
-68 2z m50 -28 c3 -8 1 -20 -5 -26 -15 -15 -43 8 -35 28 7 19 32 18 40 -2z"/>
<path d="M3382 3602 c-17 -11 -62 -74 -62 -86 0 -6 6 -4 13 5 63 80 49 73 165
80 l107 5 -105 2 c-58 1 -111 -2 -118 -6z"/>
<path d="M810 3581 c-16 -31 -12 -49 14 -66 29 -19 61 -8 71 26 15 45 -62 82
-85 40z m60 -26 c0 -19 -20 -29 -32 -17 -15 15 -2 43 17 36 8 -3 15 -12 15
-19z"/>
<path d="M3740 3186 l0 -394 -124 -111 -124 -111 -129 0 c-123 0 -131 1 -152
24 -12 13 -26 38 -31 57 -7 23 -33 55 -81 98 l-71 64 -278 -2 c-200 -2 -286 1
-302 10 -13 6 -64 51 -114 100 l-91 89 -175 0 c-124 0 -179 -4 -190 -12 -8 -7
-39 -42 -68 -78 -29 -36 -60 -68 -69 -72 -9 -4 -123 -7 -254 -7 l-239 -1 -55
-53 -55 -53 1 -241 2 -242 34 -34 35 -35 0 -208 1 -209 29 -33 c40 -44 50 -41
11 3 l-31 36 0 209 0 208 -28 33 -27 33 -5 230 -6 231 55 58 55 57 243 0 242
0 68 75 68 75 179 0 179 0 94 -92 94 -93 299 -5 298 -5 66 -58 c47 -41 66 -65
66 -82 0 -14 14 -40 31 -60 l31 -35 138 0 138 0 131 116 131 116 0 399 c0 259
-4 399 -10 399 -6 0 -10 -138 -10 -394z"/>
<path d="M2250 3525 c-23 -27 -6 -54 43 -69 11 -4 17 -16 17 -36 0 -38 39 -80
74 -80 14 0 40 13 59 29 23 21 46 31 77 33 24 2 45 8 47 14 3 8 -13 10 -49 6
-41 -3 -60 -11 -83 -33 -17 -16 -41 -29 -53 -29 -34 0 -56 42 -49 94 4 30 2
49 -9 64 -17 25 -56 29 -74 7z"/>
<path d="M1226 3488 c-21 -29 -20 -51 2 -71 37 -34 92 -11 92 38 0 25 -33 55
-62 55 -9 0 -24 -10 -32 -22z m62 -36 c3 -16 -2 -22 -17 -22 -24 0 -35 15 -27
36 9 23 40 13 44 -14z"/>
<path d="M2032 3501 c-8 -4 -12 -19 -10 -32 2 -19 9 -24 33 -24 33 0 45 25 25
50 -14 17 -29 19 -48 6z m30 -26 c0 -5 -5 -11 -11 -13 -6 -2 -11 4 -11 13 0 9
5 15 11 13 6 -2 11 -8 11 -13z"/>
<path d="M3476 3474 c-19 -19 -20 -35 -3 -56 19 -24 43 -28 66 -12 23 17 28
53 9 72 -17 17 -54 15 -72 -4z m62 -27 c4 -20 -25 -34 -40 -19 -15 15 -1 44
19 40 10 -2 19 -11 21 -21z"/>
<path d="M2650 3432 c0 -4 16 -23 35 -42 29 -29 35 -41 36 -79 0 -26 4 -68 9
-96 6 -43 8 -36 9 50 l1 101 -38 37 c-37 37 -52 45 -52 29z"/>
<path d="M1780 3375 c0 -10 7 -15 18 -13 21 4 19 22 -2 26 -10 2 -16 -3 -16
-13z"/>
<path d="M3830 3041 l0 -349 -54 -50 c-30 -27 -75 -62 -100 -78 -25 -16 -46
-35 -46 -41 0 -16 87 46 162 115 l58 54 0 349 c0 226 -4 349 -10 349 -6 0 -10
-123 -10 -349z"/>
<path d="M3790 3048 l0 -333 -62 -58 c-73 -69 -118 -102 -118 -89 0 6 36 44
81 86 44 42 75 76 69 76 -14 0 -173 -129 -205 -167 -20 -22 -26 -23 -178 -23
-107 0 -157 -3 -157 -11 0 -7 47 -10 154 -7 85 1 152 0 149 -4 -2 -5 -74 -8
-159 -8 -96 0 -154 -4 -154 -10 0 -6 57 -10 151 -10 l150 0 36 40 c27 30 39
37 49 29 19 -16 59 9 142 88 l72 68 0 333 c0 215 -4 332 -10 332 -6 0 -10
-117 -10 -332z"/>
<path d="M760 3350 c-25 -25 -26 -72 -2 -93 25 -22 75 -21 95 1 37 41 6 112
-48 112 -14 0 -34 -9 -45 -20z m80 -29 c18 -36 -11 -68 -50 -56 -42 13 -29 75
15 75 14 0 29 -8 35 -19z"/>
<path d="M2545 3360 c-8 -13 4 -32 16 -25 12 8 12 35 0 35 -6 0 -13 -4 -16
-10z"/>
<path d="M1790 3310 c0 -13 5 -20 13 -17 6 2 12 10 12 17 0 7 -6 15 -12 18 -8
2 -13 -5 -13 -18z"/>
<path d="M1121 3264 c-20 -25 -20 -44 0 -44 5 0 9 7 9 15 0 29 39 35 215 35
199 0 207 -2 273 -74 40 -43 62 -57 62 -38 0 5 -29 37 -64 70 l-64 62 -205 0
-206 0 -20 -26z"/>
<path d="M3296 3281 c-8 -13 42 -79 62 -80 21 -1 14 18 -21 56 -23 24 -36 32
-41 24z"/>
<path d="M1790 3260 c0 -5 7 -10 15 -10 8 0 15 5 15 10 0 6 -7 10 -15 10 -8 0
-15 -4 -15 -10z"/>
<path d="M2670 3250 c-18 -11 -4 -40 20 -40 13 0 20 7 20 19 0 22 -21 33 -40
21z"/>
<path d="M2970 3225 c-29 -31 -22 -53 8 -25 14 14 29 19 40 15 15 -6 15 -8 -6
-25 -12 -10 -28 -20 -35 -23 -6 -2 -9 -8 -5 -12 10 -11 68 27 68 46 0 9 -11
24 -24 32 -22 15 -25 14 -46 -8z"/>
<path d="M3280 3230 c0 -6 20 -32 45 -58 35 -38 45 -43 44 -27 0 11 -19 37
-44 58 -25 21 -45 33 -45 27z"/>
<path d="M3922 2942 l-2 -293 -26 -24 c-14 -13 -39 -27 -55 -30 -54 -12 -59
-32 -59 -220 l0 -171 -33 -32 -33 -32 -152 0 c-95 0 -152 -4 -152 -10 0 -6 58
-10 155 -10 l155 0 40 40 40 40 0 180 0 179 58 28 c33 16 62 38 69 53 14 28
15 265 3 475 -5 95 -7 59 -8 -173z"/>
<path d="M3550 3185 c-19 -23 -8 -50 20 -50 19 0 26 6 28 24 5 35 -26 53 -48
26z m30 -20 c0 -8 -4 -15 -9 -15 -13 0 -22 16 -14 24 11 11 23 6 23 -9z"/>
<path d="M1716 3158 c-21 -30 -20 -54 4 -78 28 -28 66 -26 86 5 22 33 12 55
-25 55 -27 0 -47 -21 -42 -43 1 -5 -3 -6 -9 -2 -15 9 -12 41 5 55 8 7 25 10
40 6 27 -7 35 8 9 18 -30 11 -53 6 -68 -16z"/>
<path d="M1667 3009 c28 -28 55 -49 61 -45 13 8 -79 96 -99 96 -8 0 9 -23 38
-51z"/>
<path d="M2582 2989 c2 -7 10 -15 17 -17 8 -3 12 1 9 9 -2 7 -10 15 -17 17 -8
3 -12 -1 -9 -9z"/>
<path d="M1250 2970 c0 -15 5 -20 18 -18 9 2 17 10 17 18 0 8 -8 16 -17 18
-13 2 -18 -3 -18 -18z"/>
<path d="M2710 2980 c0 -5 7 -10 15 -10 8 0 15 5 15 10 0 6 -7 10 -15 10 -8 0
-15 -4 -15 -10z"/>
<path d="M2770 2974 c0 -8 5 -12 10 -9 6 3 10 10 10 16 0 5 -4 9 -10 9 -5 0
-10 -7 -10 -16z"/>
<path d="M2810 2975 c0 -8 5 -15 10 -15 6 0 10 7 10 15 0 8 -4 15 -10 15 -5 0
-10 -7 -10 -15z"/>
<path d="M1345 2950 c3 -5 40 -10 81 -10 43 0 74 4 74 10 0 6 -34 10 -81 10
-51 0 -78 -4 -74 -10z"/>
<path d="M3074 2926 c-8 -32 2 -46 32 -46 21 0 24 5 24 35 0 31 -3 35 -25 35
-18 0 -26 -7 -31 -24z m32 -16 c0 -11 -4 -20 -8 -20 -10 0 -11 24 -1 33 9 9 9
10 9 -13z"/>
<path d="M1095 2800 c-105 -106 -111 -110 -152 -110 -24 0 -43 -4 -43 -10 0
-5 22 -10 48 -10 l49 0 109 113 109 112 145 6 145 5 -150 2 -150 2 -110 -110z"/>
<path d="M3527 2904 c-4 -4 -7 -11 -7 -16 0 -13 50 -6 53 7 2 12 -36 19 -46 9z"/>
<path d="M1823 2850 l-52 -50 -246 0 -246 0 -49 -46 -50 -47 0 -226 0 -227 30
-29 30 -29 0 -209 0 -210 37 -46 c52 -66 125 -141 148 -153 11 -6 -5 16 -35
48 -31 33 -71 79 -90 104 l-35 45 -3 216 -3 217 -30 28 -29 28 0 219 0 219 39
39 39 39 247 0 248 0 63 60 c34 33 57 60 51 60 -7 0 -35 -23 -64 -50z"/>
<path d="M1913 2884 c-15 -39 38 -67 60 -32 8 12 7 21 -2 32 -17 21 -50 20
-58 0z"/>
<path d="M3580 2886 c-7 -9 -23 -16 -36 -16 -13 0 -24 -4 -24 -10 0 -5 11 -10
25 -10 14 0 36 -7 49 -15 21 -14 24 -13 40 4 10 11 16 28 14 38 -4 23 -50 29
-68 9z m48 -19 c2 -12 -3 -17 -17 -17 -12 0 -21 6 -21 13 0 31 32 34 38 4z"/>
<path d="M3396 2874 c-28 -28 -14 -73 27 -88 20 -7 67 33 67 58 0 22 -28 46
-55 46 -13 0 -31 -7 -39 -16z m62 -30 c3 -22 -21 -39 -39 -28 -11 6 -12 38 -2
48 13 13 38 1 41 -20z"/>
<path d="M2172 2818 c-16 -16 -15 -49 3 -74 8 -13 15 -51 17 -99 2 -52 7 -80
16 -83 9 -3 12 17 12 80 0 72 3 85 20 96 22 14 27 61 8 80 -7 7 -24 12 -38 12
-14 0 -31 -5 -38 -12z m58 -38 c0 -13 -7 -20 -20 -20 -13 0 -20 7 -20 20 0 13
7 20 20 20 13 0 20 -7 20 -20z"/>
<path d="M3120 2824 c0 -6 19 -32 41 -58 l41 -47 106 3 c73 2 107 7 110 16 3
9 -23 12 -108 12 l-112 0 -39 43 c-21 23 -38 37 -39 31z"/>
<path d="M1869 2735 l-62 -55 -234 0 -234 0 -24 -25 c-25 -24 -25 -26 -24
-197 l2 -173 8 165 c11 225 -8 210 275 210 141 0 213 -3 209 -10 -4 -6 -83
-10 -206 -10 -126 0 -199 -4 -199 -10 0 -6 73 -10 200 -10 l200 0 80 76 c66
63 84 76 105 72 28 -6 34 6 9 16 -30 12 -44 5 -105 -49z"/>
<path d="M2945 2741 c-17 -19 -15 -22 46 -90 35 -39 66 -71 69 -71 3 0 11 9
18 20 11 19 6 28 -50 90 -34 39 -63 70 -63 70 -1 0 -10 -9 -20 -19z m115 -125
c0 -13 -78 63 -92 89 -6 11 13 -2 41 -30 28 -27 51 -54 51 -59z"/>
<path d="M3000 2741 c0 -6 4 -11 9 -11 5 0 32 -24 60 -52 27 -29 53 -50 57
-46 3 4 -19 31 -51 60 -62 57 -75 66 -75 49z"/>
<path d="M3430 2740 c0 -5 5 -10 10 -10 6 0 10 5 10 10 0 6 -4 10 -10 10 -5 0
-10 -4 -10 -10z"/>
<path d="M1896 2675 c-68 -60 -89 -85 -69 -85 3 0 37 29 74 65 37 36 74 65 82
65 14 0 141 -134 245 -259 l44 -52 -1 -344 -2 -344 35 -38 34 -38 99 -4 c54
-2 212 0 352 4 l254 7 49 46 48 45 0 413 c0 227 -3 419 -6 428 -3 9 -13 16
-20 16 -11 0 -12 -5 -5 -18 5 -10 8 -185 7 -425 l-1 -409 -42 -39 -42 -39
-121 0 c-114 0 -120 1 -120 20 0 19 -5 21 -72 18 -63 -3 -73 -5 -70 -20 3 -17
-10 -18 -151 -18 -151 0 -154 0 -177 25 l-24 26 -1 349 -1 348 -37 41 c-22 25
-37 51 -37 67 0 17 -4 23 -12 18 -7 -5 -46 28 -102 89 -50 52 -101 98 -113
102 -17 4 -38 -9 -97 -60z"/>
<path d="M1919 2635 l-76 -75 -187 0 -188 0 -29 -29 -29 -29 0 -317 0 -317 78
-79 78 -79 206 0 c174 0 207 -2 212 -15 7 -19 46 -20 46 -1 0 7 9 16 20 19 11
3 20 14 20 24 0 10 27 45 60 78 l60 59 0 -78 c0 -75 1 -79 37 -122 61 -76 52
-74 415 -74 286 -1 321 -2 304 -15 -14 -11 -47 -15 -119 -15 l-99 0 -88 -85
-88 -85 -143 0 -142 0 -134 132 c-73 73 -133 127 -133 122 0 -17 230 -253 263
-271 25 -12 51 -14 141 -9 61 3 122 6 135 6 15 0 49 25 101 75 87 85 110 95
222 95 67 0 80 3 106 25 17 14 42 25 57 25 21 0 47 18 101 70 41 39 79 70 84
70 6 0 10 5 10 10 0 24 -34 6 -100 -54 -87 -78 -73 -76 -473 -76 -329 0 -340
2 -377 63 -19 30 -20 52 -20 365 0 214 -4 332 -10 332 -16 0 -13 -662 3 -680
6 -8 2 -6 -10 4 l-23 19 0 337 0 336 -37 45 c-115 139 -196 201 -241 184 -9
-3 3 14 28 39 24 25 42 46 39 46 -3 0 -39 -34 -80 -75z m154 -117 c125 -132
117 -106 117 -378 l0 -235 -66 -67 c-65 -67 -67 -68 -118 -68 -39 0 -56 -5
-69 -20 -16 -19 -29 -20 -187 -20 l-169 0 -65 61 c-45 41 -69 73 -76 97 -15
56 -13 581 3 612 12 24 16 25 157 31 80 4 169 7 197 8 43 1 58 6 85 31 25 22
43 29 73 30 37 0 45 -6 118 -82z"/>
<path d="M1546 2416 l-36 -33 0 -209 c0 -294 -10 -284 290 -284 l200 0 38 34
37 34 3 191 c4 213 -4 246 -62 282 -28 17 -53 19 -233 19 l-202 0 -35 -34z
m470 -20 l34 -34 0 -196 c0 -265 20 -246 -254 -246 -112 0 -212 3 -221 6 -37
15 -45 56 -45 247 0 173 1 186 21 211 12 15 31 32 43 36 11 5 104 9 205 9
l183 1 34 -34z"/>
<path d="M1738 2364 c-5 -4 -8 -42 -8 -85 0 -97 10 -109 86 -109 l54 0 0 -34
c0 -42 15 -55 24 -22 8 31 -7 71 -29 80 -9 3 -37 6 -61 6 l-44 0 0 70 0 70 84
0 c117 0 116 1 116 -164 0 -89 -4 -136 -12 -144 -8 -8 -53 -12 -135 -12 -107
0 -123 2 -132 18 -5 10 -9 26 -8 36 1 11 -4 21 -10 23 -23 8 -16 -64 8 -88 20
-20 30 -21 150 -17 171 4 164 -4 164 183 0 137 -1 146 -23 167 -20 20 -34 23
-120 26 -53 2 -100 0 -104 -4z"/>
<path d="M1870 1834 c0 -9 5 -14 12 -12 18 6 21 28 4 28 -9 0 -16 -7 -16 -16z"/>
<path d="M2423 2693 c-17 -6 -16 -38 1 -52 28 -23 68 17 45 45 -12 14 -24 16
-46 7z m27 -23 c0 -5 -4 -10 -10 -10 -5 0 -10 5 -10 10 0 6 5 10 10 10 6 0 10
-4 10 -10z"/>
<path d="M1376 2569 c-3 -17 -6 -206 -6 -419 l0 -388 33 -43 c17 -23 41 -47
52 -53 11 -6 23 -15 26 -20 4 -5 12 -5 18 -1 8 4 -4 21 -34 47 -25 22 -50 49
-56 59 -11 21 -13 783 -3 826 4 16 2 23 -9 23 -8 0 -17 -13 -21 -31z"/>
<path d="M2444 2516 l-34 -34 0 -277 0 -277 34 -34 34 -34 225 0 c212 0 226 1
251 21 24 19 26 26 26 100 0 46 -4 79 -10 79 -6 0 -10 -30 -10 -69 0 -112 -5
-114 -287 -109 -261 4 -237 -28 -241 318 l-3 270 25 25 25 25 229 0 c164 0
231 -3 240 -12 8 -8 12 -46 12 -103 0 -97 7 -138 21 -129 5 3 9 53 9 110 0
103 -1 106 -29 135 l-29 29 -227 0 -227 0 -34 -34z"/>
<path d="M4303 2469 c4 -15 0 -30 -10 -41 -14 -16 -37 -18 -220 -18 -174 0
-203 -2 -203 -15 0 -13 29 -15 199 -15 l199 0 32 26 c33 28 39 73 11 82 -10 3
-12 -1 -8 -19z"/>
<path d="M1030 2430 c0 -11 7 -20 15 -20 8 0 15 9 15 20 0 11 -7 20 -15 20 -8
0 -15 -9 -15 -20z"/>
<path d="M920 2400 c0 -5 7 -10 15 -10 8 0 15 5 15 10 0 6 -7 10 -15 10 -8 0
-15 -4 -15 -10z"/>
<path d="M847 2393 c-4 -4 16 -31 45 -60 52 -52 53 -53 112 -53 48 0 65 -5 85
-22 22 -20 23 -20 8 -2 -24 29 -21 37 11 30 20 -5 23 -4 12 4 -8 5 -49 10 -90
10 l-74 0 -51 50 c-28 28 -54 47 -58 43z"/>
<path d="M3170 2387 c0 -15 26 -17 285 -17 183 0 285 4 285 10 0 6 -36 10 -88
10 -49 0 -177 3 -285 7 -179 6 -197 5 -197 -10z"/>
<path d="M3172 2338 c4 -10 62 -14 239 -16 135 -1 237 -6 243 -12 6 -6 14 -10
18 -10 13 0 9 17 -8 34 -13 14 -51 16 -256 16 -187 0 -239 -3 -236 -12z"/>
<path d="M3180 2290 c0 -6 64 -10 173 -10 187 0 197 -3 197 -52 l0 -28 -75 0
c-53 0 -75 -4 -75 -12 0 -9 18 -12 62 -10 103 4 108 7 108 51 0 67 -12 71
-213 71 -111 0 -177 -4 -177 -10z"/>
<path d="M3605 2209 c-4 -6 -4 -13 -1 -16 8 -8 36 5 36 17 0 13 -27 13 -35 -1z"/>
<path d="M1107 2163 c-2 -21 -2 -119 1 -218 l4 -180 40 -52 c34 -47 48 -61 48
-50 0 2 -18 27 -39 56 l-40 53 2 214 c2 198 -4 267 -16 177z"/>
<path d="M1292 1977 l-2 -219 83 -84 83 -84 234 0 235 0 172 -175 171 -175
155 0 c178 0 151 -12 307 131 52 47 104 91 115 97 19 11 19 11 -3 12 -15 0
-62 -36 -142 -110 l-120 -110 -148 0 -148 0 -175 175 -174 175 -229 0 -228 0
-66 64 c-37 35 -77 69 -89 75 -22 11 -23 16 -26 229 l-2 217 -3 -218z"/>
<path d="M3250 2140 c-79 -5 -85 -7 -88 -27 -4 -26 22 -32 32 -8 4 11 22 15
75 15 38 0 72 4 76 9 9 15 -4 16 -95 11z"/>
<path d="M3875 2100 c3 -5 8 -10 11 -10 2 0 4 5 4 10 0 6 -5 10 -11 10 -5 0
-7 -4 -4 -10z"/>
<path d="M3417 2093 c-19 -18 4 -23 117 -23 131 0 189 7 180 21 -6 10 -287 12
-297 2z"/>
<path d="M852 2023 c2 -13 12 -18 33 -18 43 0 40 29 -3 33 -28 3 -33 0 -30
-15z"/>
<path d="M3192 1994 c-14 -10 -22 -25 -22 -45 0 -27 3 -30 23 -24 29 9 47 33
47 62 0 27 -16 29 -48 7z"/>
<path d="M3170 1865 c0 -32 3 -35 28 -35 34 0 52 16 52 47 0 20 -5 23 -40 23
-39 0 -40 -1 -40 -35z"/>
<path d="M1070 1850 c0 -5 5 -10 10 -10 6 0 10 5 10 10 0 6 -4 10 -10 10 -5 0
-10 -4 -10 -10z"/>
<path d="M840 1626 c0 -2 7 -9 15 -16 9 -7 15 -8 15 -2 0 5 -7 12 -15 16 -8 3
-15 4 -15 2z"/>
<path d="M1096 1617 c-12 -9 -17 -23 -14 -42 2 -25 8 -31 32 -33 16 -2 32 2
37 10 15 23 10 57 -10 68 -25 13 -24 13 -45 -3z m34 -21 c0 -3 -4 -8 -10 -11
-5 -3 -10 -1 -10 4 0 6 5 11 10 11 6 0 10 -2 10 -4z"/>
<path d="M885 1591 c-3 -5 -1 -12 5 -16 5 -3 10 1 10 9 0 18 -6 21 -15 7z"/>
<path d="M1480 1563 c0 -10 50 -13 218 -13 l217 0 90 -90 89 -89 -24 -27 c-14
-14 -25 -33 -25 -43 0 -9 -64 -79 -142 -154 l-142 -137 -143 0 -143 0 -112
105 c-61 58 -116 105 -122 105 -5 0 -13 -5 -17 -12 -4 -7 -3 -8 4 -4 7 4 60
-40 127 -104 l115 -110 142 0 c168 0 147 -10 303 142 102 100 111 106 127 91
17 -15 18 -15 18 0 0 10 -7 17 -17 17 -15 0 -15 1 0 18 10 10 17 27 17 37 0
11 12 31 26 46 l26 28 -20 28 c-11 15 -53 60 -94 100 l-73 72 -223 3 c-172 2
-222 0 -222 -9z"/>
<path d="M1332 1415 c-98 -93 -114 -105 -146 -105 -27 0 -46 -9 -77 -37 -66
-59 -69 -72 -69 -256 0 -164 0 -164 26 -191 l27 -26 324 0 325 0 177 174 c97
95 190 181 208 190 26 13 66 16 232 16 l201 0 16 -25 c12 -19 17 -56 19 -167
3 -168 3 -167 15 -148 5 8 10 75 10 148 0 114 -3 139 -20 172 -13 25 -30 42
-45 46 -14 3 -109 4 -212 2 -157 -3 -194 -7 -223 -22 -19 -10 -112 -96 -206
-192 l-171 -174 -317 0 -317 0 -24 25 c-24 23 -25 28 -25 169 0 80 4 155 9
168 5 13 24 40 42 61 28 32 43 39 89 46 52 8 58 12 142 102 80 85 116 129 105
129 -3 0 -54 -47 -115 -105z"/>
<path d="M1544 1409 c-47 -46 -69 -60 -84 -56 -11 3 -20 1 -20 -4 0 -5 13 -9
28 -9 20 0 42 15 82 55 l54 55 78 0 c65 0 76 -2 72 -15 -4 -8 -12 -15 -19 -15
-26 0 -74 -51 -81 -85 -8 -42 0 -66 33 -99 22 -22 35 -26 85 -26 50 0 62 4 81
25 42 46 77 93 77 102 0 5 -28 37 -63 71 l-63 62 -98 0 -98 0 -64 -61z m316
-14 l54 -55 -22 -23 c-12 -13 -22 -28 -22 -33 0 -6 -12 -21 -27 -35 l-27 -24
22 29 c30 39 28 87 -3 125 -14 16 -35 33 -45 36 -11 4 -20 13 -20 21 0 29 37
12 90 -41z m-51 -21 c76 -64 1 -174 -94 -138 -19 8 -45 55 -45 83 0 11 12 33
26 50 32 39 71 41 113 5z"/>
<path d="M3870 1400 c0 -5 5 -10 10 -10 6 0 10 5 10 10 0 6 -4 10 -10 10 -5 0
-10 -4 -10 -10z"/>
<path d="M3043 1318 c-21 -28 -23 -37 -7 -52 22 -23 43 -20 56 9 18 39 -24 75
-49 43z m22 -38 c-6 -9 -9 -9 -16 1 -10 17 0 34 13 21 6 -6 7 -16 3 -22z"/>
<path d="M2760 1301 c0 -24 18 -37 32 -23 8 8 7 16 -2 27 -17 21 -30 19 -30
-4z"/>
<path d="M1910 1103 c-63 -63 -128 -121 -145 -130 -18 -10 -25 -18 -17 -21 19
-6 57 23 160 122 90 87 143 148 125 144 -4 0 -60 -52 -123 -115z"/>
<path d="M1157 1172 c-37 -40 -9 -102 46 -102 14 0 33 7 41 16 20 20 20 68 0
88 -21 22 -67 20 -87 -2z m71 -14 c29 -29 -4 -76 -42 -62 -16 6 -22 54 -9 67
10 11 38 8 51 -5z"/>
<path d="M2477 1123 c-4 -3 -7 -11 -7 -17 0 -6 5 -5 12 2 6 6 9 14 7 17 -3 3
-9 2 -12 -2z"/>
<path d="M3340 1028 c0 -60 -10 -75 -103 -157 l-57 -51 -192 0 -192 0 29 30
c28 29 31 30 127 30 71 0 105 -4 122 -15 21 -14 24 -13 46 10 l23 25 -24 1
c-13 1 -78 0 -144 -1 l-120 -2 -42 -39 -43 -39 -139 0 -140 0 -3 123 -3 122
-133 3 -132 3 -136 -133 c-75 -73 -130 -134 -124 -136 7 -3 67 50 134 116 66
67 133 126 149 131 37 14 34 8 -11 -22 -52 -34 -76 -86 -68 -145 17 -127 164
-186 252 -101 19 18 34 40 34 48 0 10 -11 4 -33 -17 -93 -91 -227 -40 -227 86
0 55 23 94 70 121 63 35 112 26 174 -32 l37 -36 -2 -78 -2 -78 154 1 c85 0
247 2 361 2 l207 2 85 83 86 82 0 58 c0 31 -4 57 -10 57 -5 0 -10 -24 -10 -52z
m-870 -4 c0 -16 -26 -19 -35 -4 -4 6 -4 18 -1 27 5 12 9 13 21 3 8 -7 15 -19
15 -26z"/>
<path d="M2698 1009 c-24 -13 -23 -46 1 -59 15 -7 23 -6 35 6 9 8 16 19 16 24
0 7 -28 41 -33 40 -1 0 -10 -5 -19 -11z"/>
<path d="M3654 985 c-15 -23 -15 -27 0 -50 30 -46 96 -26 96 29 0 46 -69 61
-96 21z m64 -23 c3 -16 -2 -22 -17 -22 -24 0 -35 15 -27 36 9 23 40 13 44 -14z"/>
<path d="M3910 961 c-19 -36 7 -65 48 -54 44 11 32 73 -13 73 -14 0 -29 -8
-35 -19z m57 -17 c5 -15 -28 -27 -40 -15 -5 5 -6 14 -2 21 8 13 37 9 42 -6z"/>
<path d="M1665 960 c-3 -5 3 -10 14 -10 16 0 21 -6 21 -25 0 -14 5 -25 10 -25
17 0 12 57 -6 64 -22 8 -32 8 -39 -4z"/>
<path d="M1440 936 c0 -21 15 -28 45 -20 39 10 32 34 -10 34 -24 0 -35 -5 -35
-14z"/>
<path d="M1927 906 c-7 -16 1 -26 20 -26 7 0 13 9 13 20 0 23 -25 27 -33 6z"/>
</g>
</svg>